<?xml version="1.0" encoding="UTF-8" standalone="no"?>
<!-- Created with Inkscape (http://www.inkscape.org/) -->

<svg
   width="144.72708mm"
   height="144.72708mm"
   viewBox="0 0 144.72708 144.72708"
   version="1.1"
   id="svg1"
   xml:space="preserve"
   inkscape:version="1.4.3 (0d15f75042, 2025-12-25)"
   sodipodi:docname="default-image.svg"
   xmlns:inkscape="http://www.inkscape.org/namespaces/inkscape"
   xmlns:sodipodi="http://sodipodi.sourceforge.net/DTD/sodipodi-0.dtd"
   xmlns="http://www.w3.org/2000/svg"
   xmlns:svg="http://www.w3.org/2000/svg"><sodipodi:namedview
     id="namedview1"
     pagecolor="#ffffff"
     bordercolor="#000000"
     borderopacity="0.25"
     inkscape:showpageshadow="2"
     inkscape:pageopacity="0.0"
     inkscape:pagecheckerboard="0"
     inkscape:deskcolor="#d1d1d1"
     inkscape:document-units="mm"
     inkscape:zoom="0.5986532"
     inkscape:cx="241.37514"
     inkscape:cy="276.45388"
     inkscape:window-width="1821"
     inkscape:window-height="1569"
     inkscape:window-x="0"
     inkscape:window-y="0"
     inkscape:window-maximized="0"
     inkscape:current-layer="layer1" /><defs
     id="defs1" /><rect
     style="fill:#b2b2b2;fill-opacity:1;stroke:none;stroke-width:4.5207;stroke-dasharray:none;stroke-opacity:1"
     id="rect3"
     width="154.07037"
     height="154.07036"
     x="-4.4724045"
     y="-5.3929949"
     transform="translate(-0.05907713,-0.23229218)" /><g
     inkscape:label="Calque 1"
     inkscape:groupmode="layer"
     id="layer1"
     transform="translate(-0.05907713,-0.23229218)"><circle
       style="fill:#666666;stroke-width:0.264583"
       id="path1"
       cx="56.354275"
       cy="54.449368"
       r="12.87221" /><circle
       style="fill:#666666;stroke-width:0.264583;fill-opacity:1"
       id="path1-2"
       cx="92.668564"
       cy="54.449368"
       r="12.87221" /><g
       id="g3"
       style="fill:none;stroke:#666666;stroke-opacity:1;fill-opacity:1"><g
         id="g2"
         style="fill:none;stroke:#666666;stroke-opacity:1;fill-opacity:1"><path
           id="ellipse2-6"
           style="fill:none;stroke:#666666;stroke-width:4.52071;stroke-dasharray:none;stroke-opacity:1;fill-opacity:1"
           d="m 89.99829,105.9044 a 34.215454,34.215454 0 0 0 -22.952604,-8.840809 34.215454,34.215454 0 0 0 -15.965434,3.953249 34.215454,34.215454 0 0 0 22.952604,8.8408 34.215454,34.215454 0 0 0 15.965434,-3.95324 z" /><path
           id="path3"
           style="fill:none;stroke:#666666;stroke-width:4.52071;stroke-dasharray:none;stroke-opacity:1;fill-opacity:1"
           d="m 108.01424,79.639848 -66.445552,6.80837 a 34.215454,34.215454 0 0 0 9.511564,14.568622 34.215454,34.215454 0 0 1 15.965434,-3.953249 34.215454,34.215454 0 0 1 22.952604,8.840809 34.215454,34.215454 0 0 0 18.01595,-26.264552 z" /></g></g></g></svg>
